<svg width="132" height="141" viewBox="0 0 132 141" fill="none" xmlns="http://www.w3.org/2000/svg">
  <path d="M129.926 53.5554C130.769 49.5192 128.273 45.544 124.353 44.6766C120.433 43.8093 116.571 46.3782 115.729 50.4144C114.887 54.4507 117.382 58.4259 121.302 59.2932C125.223 60.1606 129.084 57.5917 129.926 53.5554Z" fill="white"/>
  <path d="M122.806 50.1965C121.277 47.8687 118.825 49.4096 119.494 51.2128C120.003 52.557 122.806 55.1142 122.869 55.0487C122.933 55.0814 125.672 52.4586 126.149 51.1145C126.786 49.2785 124.271 47.8032 122.806 50.1965Z" fill="#5644F6"/>
  <path opacity="0.3" d="M98.3074 7.38752L0 32.5421L26.0224 140.341L124.33 115.187L98.3074 7.38752Z" fill="#DBDBDB"/>
  <path d="M101.428 1.65296L3.12061 26.8076L29.143 134.607L127.45 109.452L101.428 1.65296Z" fill="white"/>
  <path d="M113.636 96.2596L34.5042 116.521L15.1431 34.6564L94.2753 14.3953L113.636 96.2596Z" fill="#5644F6"/>
  <path d="M76.5055 24.3292C76.5055 24.3292 71.2831 24.3292 70.7736 22.7227C70.2641 21.1162 80.8681 18.7885 88.0011 18.0672C95.1342 17.3459 104.878 16.4608 105.929 18.0672C106.98 19.6737 94.4336 22.7227 90.8034 23.444C87.1095 24.1652 76.5055 24.3292 76.5055 24.3292Z" fill="#5644F6"/>
  <path d="M85.1984 18.5918C85.1984 18.5918 78.0654 18.0672 74.053 23.6079C70.0407 29.1486 69.5312 29.8699 62.0479 29.1486C54.5645 28.4273 51.0935 33.4434 52.4628 43.4757C87.6186 55.3111 93.5415 57.4421 93.5415 57.4421C93.5415 57.4421 99.1142 56.1963 100.866 48.4918C102.617 40.7873 97.0444 32.1976 96.1527 30.919C95.293 29.7059 85.1984 18.5918 85.1984 18.5918Z" fill="#1A1940"/>
  <path d="M22.5303 35.8039L39.7579 14.1329C39.7579 14.1329 37.3059 9.8381 39.2484 9.11683C40.1081 7.31365 41.159 8.59227 41.159 8.59227C41.159 8.59227 41.6685 6.62516 43.0696 8.06771C42.7193 2.52703 42.2098 0.19929 43.0696 0.00257921C43.9294 -0.161346 44.821 7.54315 44.821 7.54315C44.821 7.54315 46.5725 0.19929 47.5915 0.00257921C48.6423 -0.161346 46.3814 9.31354 46.3814 9.31354C46.3814 9.31354 48.1328 10.3954 48.1328 11.2806C48.1328 12.1658 45.0121 14.1329 45.0121 14.1329L39.0891 39.7709L22.5303 35.8039Z" fill="#D49C8C"/>
  <path d="M44.0244 8.98566C44.0244 8.95288 43.9289 8.78895 43.8971 8.6906C43.9289 8.6906 43.9926 8.69059 44.0244 8.72338C44.4384 8.85452 44.8524 8.95287 45.2664 9.08402C45.6485 9.18237 45.8077 8.59224 45.4256 8.4611C45.1708 8.39553 44.9161 8.29717 44.6613 8.2316C44.4066 8.16603 44.1837 8.06768 43.9289 8.03489C43.706 8.00211 43.4831 8.06768 43.3557 8.29717C43.2283 8.49388 43.2283 8.72338 43.3239 8.95288C43.3876 9.18237 43.5468 9.3463 43.6423 9.54301C43.7697 9.73972 43.8971 9.93643 44.0563 10.1331C44.2473 10.3954 44.4384 10.6249 44.6295 10.8544C44.2473 10.92 43.8971 10.9528 43.5149 11.0183H43.4831C43.4194 10.2315 43.3557 9.47744 43.2602 8.6906C43.2283 8.29717 42.5915 8.29717 42.6551 8.6906C42.7188 9.3463 42.7825 10.002 42.8462 10.6249C42.8781 10.9528 42.9099 11.3134 42.9417 11.6413C42.9417 11.8052 42.9736 11.9363 42.9736 12.1002C42.9736 12.1658 42.9736 12.1986 42.9736 12.2642C42.9417 12.2314 42.9099 12.1986 42.8781 12.1658C42.8144 12.0675 42.7507 11.9363 42.687 11.8052C42.5596 11.5429 42.4004 11.2806 42.273 10.9856C42.0183 10.4282 41.7635 9.87086 41.5724 9.28073C41.4451 8.88731 40.9037 9.05123 40.9674 9.44465C41.0629 10.0348 41.1903 10.6577 41.2859 11.2478C41.3495 11.5429 41.3814 11.8052 41.4451 12.1002C41.4451 12.1658 41.4769 12.2642 41.4451 12.2642C41.4451 12.2642 41.4769 12.297 41.4132 12.2642C41.3814 12.2642 41.3495 12.2314 41.3177 12.2314C40.9356 12.0347 40.6808 11.5757 40.5216 11.215C40.2987 10.7888 40.1713 10.3298 40.0439 9.87086C39.9166 9.47744 39.3434 9.64136 39.4389 10.0348C39.5981 10.6249 39.7892 11.215 40.0758 11.7396C40.3305 12.1986 40.7764 12.8215 41.3177 12.8871C41.6043 12.9199 41.9227 12.7887 42.0183 12.4937C42.082 12.297 42.0501 12.0675 42.0183 11.838C42.1138 12.0347 42.2412 12.2642 42.3685 12.4609C42.5278 12.7232 42.8144 12.9854 43.1646 12.9199C43.4831 12.8543 43.6105 12.5264 43.6105 12.1986C43.6105 12.0019 43.5786 11.7724 43.5786 11.5757C43.6105 11.5757 43.6742 11.5757 43.706 11.5757C44.2473 11.4773 44.7887 11.4118 45.33 11.3134C45.5848 11.2806 45.6166 10.9528 45.4574 10.7888C44.9161 10.2971 44.4384 9.67415 44.0244 8.98566ZM43.8971 8.65781C43.8652 8.65781 43.8652 8.65781 43.8971 8.65781V8.65781ZM43.8334 8.6906C43.8334 8.72338 43.8015 8.6906 43.8334 8.6906C43.8652 8.6906 43.8652 8.6906 43.8334 8.6906C43.8652 8.72338 43.8334 8.72338 43.8334 8.6906Z" fill="#1A1940"/>
  <path d="M83.4475 28.9846L70.7418 43.3117C70.7418 43.3117 58.3863 39.7381 39.4073 41.7052C32.9111 117.668 32.9111 117.439 32.9111 117.439L92.8415 101.899L93.8923 54.4258C93.8923 54.4258 89.3705 51.5735 88.1604 51.2129C89.3705 35.9678 89.5615 32.9516 89.5615 32.9516L83.4475 28.9846Z" fill="#D59C8C"/>
  <path d="M69.1814 42.951C69.1814 42.951 66.0607 52.2619 67.0797 59.6058C68.1305 66.9496 83.957 67.8348 85.5173 68.0316C87.0777 68.1955 89.6889 67.8676 90.0392 63.1794C90.3895 58.5239 89.1794 51.3439 89.1794 51.3439L93.8923 54.393C93.8923 54.393 95.8029 86.2928 93.1917 98.6528C78.0658 103.505 55.7751 99.8987 51.6035 96.489C57.8768 61.0156 57.8768 61.0155 57.8768 61.0155C57.8768 61.0155 60.6472 60.1304 62.2394 54.393C63.7998 48.6556 65.2009 41.8363 65.2009 41.8363C65.2009 41.8363 68.6719 42.787 69.1814 42.951Z" fill="#5644F6"/>
  <path d="M110.61 97.9644L108.158 66.7858C108.158 66.7858 103.923 61.2451 96.1533 55.5077C96.1215 59.9337 95.9622 75.0476 94.9432 82.0308C94.0516 88.0961 92.1091 97.7021 91.1538 102.292L106.598 98.6856L110.61 97.9644Z" fill="#50AD82"/>
  <path d="M96.1527 55.5077C94.8471 54.557 93.4778 53.5734 91.9811 52.6554C91.9811 52.6554 91.4716 72.7199 90.0705 81.1457C88.6694 89.5714 85.8989 103.538 85.8989 103.538L91.1532 102.325C92.1085 97.7021 94.051 88.1289 94.9426 82.0636C95.9616 75.0476 96.1208 59.9337 96.1527 55.5077Z" fill="#6BD5A4"/>
  <path d="M58.6729 41.2462C49.3107 40.5577 40.9995 41.5085 39.6302 41.7052L38.8978 44.0657L18.1992 38.5578C13.9639 43.5084 8.77338 51.6719 10.7159 60.5238C13.8366 74.8509 33.5161 74.8509 33.5161 74.8509C33.5161 74.8509 30.1088 85.3749 19.8551 119.406C24.4406 119.045 36.7642 116.226 44.3112 114.455C45.3939 107.538 49.6929 80.8178 51.7946 70.0315C53.8007 59.6714 57.4628 45.7705 58.6729 41.2462Z" fill="#50AD82"/>
  <path d="M58.6733 41.2462C57.4632 45.7706 53.7693 59.6715 51.7631 70.0315C49.6614 80.8506 45.3625 107.8 44.2798 114.718C47.91 113.865 50.4575 113.242 50.4575 113.242C50.4575 113.242 55.4252 76.3263 58.0364 64.4909C60.6476 52.6555 63.2588 41.738 63.2588 41.738C61.7303 41.5085 60.2018 41.3446 58.6733 41.2462Z" fill="#6BD5A4"/>
  <path d="M39.6308 41.6724C39.5034 41.7052 39.4079 41.7052 39.4079 41.7052L40.1085 37.5743L23.0401 33.6401C23.0401 33.6401 20.7792 35.476 18.168 38.5251L38.8984 44.0329L39.6308 41.6724Z" fill="#6BD5A4"/>
  <path d="M99.1145 16.8213C99.1145 16.8213 100.675 24.0012 98.605 30.9845C96.5033 37.9677 86.0903 37.9677 83.7975 30.8205C83.7975 30.8205 80.3265 32.0664 79.4349 28.1321C78.5751 24.1979 83.097 24.3619 83.097 24.3619C82.2372 18.4606 82.0461 17.1819 82.0461 17.1819L98.9234 15.3788L99.1145 16.8213Z" fill="#D59C8C"/>
  <path d="M96.3439 17.1492C96.3439 17.1492 91.1215 22.6898 83.1287 24.3291C79.8169 16.9852 80.5175 15.7394 80.5175 15.7394L98.6049 13.4117L99.1144 16.8213L99.8149 22.1981C99.8149 22.1981 97.9043 20.5588 96.3439 17.1492Z" fill="#1A1940"/>
  <path d="M99.3059 12.133C97.9048 8.19882 92.8734 6.23171 86.7912 7.11691C80.709 8.00211 77.3973 11.2478 76.6967 14.2968C76.4101 15.6082 76.2827 17.1164 76.2827 18.3622L100.357 15.5427C100.07 14.5919 99.7517 13.4444 99.3059 12.133Z" fill="#5644F6"/>
  <path d="M87.9692 18.0671C92.0452 17.6737 96.981 17.1819 100.643 17.1491C100.548 16.6901 100.452 16.1656 100.293 15.5427L76.2188 18.3622C76.2188 19.0179 76.2188 19.6408 76.2506 20.0998C79.7534 19.2146 84.339 18.4278 87.9692 18.0671Z" fill="#F09B39"/>
  <path d="M106.247 44.2296L108.699 76.654L126.977 75.4082C126.977 75.4082 122.806 55.8683 110.45 43.3444C107.139 41.3773 105.929 40.656 105.929 40.656C105.929 40.656 104.878 39.9348 103.827 40.4921C102.776 41.0167 102.617 41.7379 103.668 42.0986C104.687 42.4264 105.737 42.951 106.247 44.2296Z" fill="#D59C8C"/>
  <path d="M126.277 73.6051C126.277 73.6051 127.678 79.3425 126.786 86.1618C125.926 92.9811 123.825 100.128 117.902 101.21C111.979 102.292 106.597 98.6857 106.597 98.6857L107.298 75.5722L126.277 73.6051Z" fill="#50AD82"/>
  <path d="M104.527 36.8858L109.208 49.6064L112.329 48.6884L107.998 36.6891L104.527 36.8858Z" fill="#DC5B59"/>
  <path d="M109.877 23.739L102.075 32.0336L99.8144 31.509C99.8144 31.509 98.063 33.6729 98.6043 35.2793C99.1138 36.8858 100.356 37.9677 101.216 38.3283C102.075 37.4431 102.075 37.4431 102.075 37.4431L116.182 39.148C114.399 37.0825 112.488 34.5253 111.278 31.9025C110.068 29.1485 109.782 26.1979 109.877 23.739Z" fill="#F09B39"/>
  <path d="M115.482 28.0994C113.126 20.4932 116.469 16.7229 116.692 16.4607L109.878 23.739C109.814 26.1978 110.069 29.1485 111.311 31.8696C112.521 34.4925 114.431 37.0497 116.215 39.1152L124.335 40.0987C121.246 38.066 117.393 34.2957 115.482 28.0994Z" fill="#DC5B59"/>
  <path d="M124.685 26.4929C121.724 17.3459 116.692 16.4607 116.692 16.4607C116.469 16.6902 113.126 20.4604 115.482 28.0994C117.393 34.2957 121.246 38.066 124.335 40.0659L124.526 40.0987C124.526 40.0987 127.647 35.6071 124.685 26.4929Z" fill="#1A1940"/>
  <path d="M107.871 70.3266L126.086 69.3103L127.647 75.4083L107.776 76.818L107.871 70.3266Z" fill="#6BD5A4"/>
  <path d="M112.52 39.7381C112.52 39.7381 107.998 39.7381 108.348 40.82C108.699 41.9019 110.1 41.9019 110.1 41.9019C110.1 41.9019 107.998 41.9019 108.348 42.9838C108.699 44.0657 110.45 43.3444 110.45 43.3444C110.45 43.3444 108.54 44.5903 109.24 44.9509C109.941 45.3115 110.8 45.3115 110.8 45.3115C110.8 45.3115 109.24 46.0328 110.45 46.5574C111.66 47.0819 113.571 46.3934 113.571 46.3934C113.571 46.3934 115.195 45.246 112.998 45.2132C114.908 44.3608 113.125 43.2461 113.125 43.2461C114.463 42.2297 112.552 41.574 112.552 41.574C114.08 40.82 112.52 39.7381 112.52 39.7381Z" fill="#D49C8C"/>
  <path d="M109.496 41.8035C110.419 41.6724 111.343 41.6396 112.266 41.6724C112.648 41.6724 112.648 41.0495 112.266 41.0495C111.343 41.0167 110.419 41.0823 109.496 41.1806C109.336 41.2134 109.177 41.3118 109.177 41.5085C109.209 41.6396 109.336 41.8363 109.496 41.8035Z" fill="#1A1940"/>
  <path d="M109.623 43.7051C110.578 43.6067 111.566 43.5412 112.521 43.4428C112.68 43.4428 112.839 43.3117 112.839 43.115C112.839 42.951 112.712 42.7871 112.521 42.7871C111.566 42.8855 110.578 42.951 109.623 43.0494C109.464 43.0494 109.305 43.1805 109.305 43.3772C109.305 43.5412 109.464 43.7051 109.623 43.7051Z" fill="#1A1940"/>
  <path d="M110.196 45.7378C111.12 45.705 112.043 45.6394 112.967 45.6067C113.126 45.6067 113.285 45.4755 113.285 45.2788C113.285 45.1149 113.158 44.951 112.967 44.951C112.043 44.9837 111.12 45.0493 110.196 45.0821C110.037 45.0821 109.878 45.2132 109.878 45.4099C109.878 45.5739 110.037 45.7378 110.196 45.7378Z" fill="#1A1940"/>
  <path d="M40.9991 120.127C38.2605 117.308 35.2672 120.127 36.6683 122.488C37.7192 124.225 42.3047 126.946 42.3684 126.881C42.4639 126.914 45.5846 122.52 45.8712 120.488C46.2215 117.767 42.3684 116.422 40.9991 120.127Z" fill="#DC5B59"/>
  <path d="M58.4176 123.897C58.3539 123.897 58.3221 123.897 58.2584 123.897L56.7617 123.438C56.1248 124.061 55.3606 124.488 54.5008 124.684C52.017 125.242 49.565 123.57 49.0236 121.012C48.4823 118.455 50.1063 115.931 52.5902 115.373C55.074 114.816 57.526 116.488 58.0673 119.045C58.2902 120.127 58.131 121.242 57.6534 122.225L58.5768 123.438C58.6724 123.537 58.6724 123.701 58.5768 123.832C58.545 123.832 58.4813 123.897 58.4176 123.897ZM52.7494 115.963C50.584 116.422 49.2147 118.619 49.6605 120.848C50.1063 123.078 52.2399 124.488 54.4053 124.029C55.2014 123.865 55.9019 123.438 56.4751 122.848C56.5707 122.75 56.6662 122.717 56.7936 122.75L57.4941 122.979L57.0483 122.422C56.9846 122.324 56.9528 122.193 57.0165 122.061C57.526 121.176 57.6852 120.16 57.4623 119.144C57.0165 116.947 54.8829 115.504 52.7494 115.963Z" fill="#1A1940"/>
  <path d="M64.0219 116.914C63.9582 116.914 63.8945 116.914 63.8627 116.914L58.0034 114.816C57.876 114.783 57.7805 114.652 57.8123 114.488C57.8123 114.357 57.9079 114.226 58.0671 114.193L68.7985 111.865C68.894 111.833 69.0214 111.865 69.0851 111.964C69.1488 112.062 69.1806 112.16 69.1488 112.259L69.1169 112.423C69.0851 112.488 69.0532 112.521 69.0214 112.587L64.213 116.881C64.1174 116.881 64.0537 116.914 64.0219 116.914ZM59.2135 114.554L63.8627 116.226L67.875 112.652L59.2135 114.554Z" fill="#1A1940"/>
  <path d="M66.0919 122.324C66.06 122.324 66.06 122.324 66.0282 122.324C65.9008 122.324 65.7734 122.258 65.7416 122.127L63.6399 116.717C63.5762 116.586 63.6399 116.455 63.7354 116.357L68.5439 112.062C68.6394 111.964 68.7986 111.964 68.926 112.029C69.0534 112.095 69.0852 112.259 69.0534 112.39L66.3148 122.061C66.2829 122.225 66.2193 122.291 66.0919 122.324ZM64.3086 116.685L65.9963 121.012L68.1936 113.242L64.3086 116.685Z" fill="#1A1940"/>
  <path d="M73.1942 28.9846L67.6851 22.2964C69.341 20.3621 70.3282 17.8704 70.3282 15.0837C70.3282 9.05124 65.5834 4.16626 59.7242 4.16626C53.8649 4.16626 49.1201 9.05124 49.1201 15.0837C49.1201 21.1161 53.8649 26.0011 59.7242 26.0011C61.9214 26.0011 63.9594 25.3126 65.6471 24.1324L73.1942 28.9846Z" fill="#F09B39"/>
  <path d="M54.0563 12.8543C54.0563 12.8543 59.4379 12.7559 59.4698 12.7559C59.5653 12.7559 60.0111 9.01844 60.0111 8.72337C59.8837 7.47754 60.4251 7.08412 61.253 8.06767C61.9536 8.8873 62.1447 10.1987 62.0491 11.2806C64.9151 11.4773 66.2207 11.674 65.9341 12.5592C65.6475 13.4444 65.6475 13.4444 65.6475 13.4444C65.6475 13.4444 66.5073 14.2313 66.3162 14.9198C66.1252 15.6082 65.552 15.9033 65.552 15.9033C65.552 15.9033 66.6028 16.9852 66.1252 17.5753C65.6475 18.1655 65.1698 18.2638 65.1698 18.2638C65.1698 18.2638 65.9341 19.149 65.2654 19.6408C64.5967 20.1326 53.8652 19.4441 53.8652 19.4441L54.0563 12.8543Z" fill="white"/>
  <path d="M16.8301 31.8368C22.5986 31.8368 27.2749 27.0223 27.2749 21.0833C27.2749 15.1443 22.5986 10.3298 16.8301 10.3298C11.0616 10.3298 6.38525 15.1443 6.38525 21.0833C6.38525 27.0223 11.0616 31.8368 16.8301 31.8368Z" fill="white"/>
  <path d="M16.8298 18.4933C14.6644 15.1492 11.0979 17.3458 12.085 19.9686C12.7856 21.9029 16.8616 25.5749 16.9253 25.5093C16.989 25.5749 20.9695 21.8046 21.6382 19.8375C22.5299 17.1819 18.9315 15.0836 16.8298 18.4933Z" fill="#5644F6"/>
  <path d="M103 124.848C108.769 124.848 113.445 120.034 113.445 114.095C113.445 108.156 108.769 103.341 103 103.341C97.232 103.341 92.5557 108.156 92.5557 114.095C92.5557 120.034 97.232 124.848 103 124.848Z" fill="white"/>
  <path d="M98.4152 112.062L102.937 111.996C103.033 111.996 103.415 108.882 103.383 108.652C103.287 107.636 103.733 107.275 104.434 108.095C105.007 108.783 105.166 109.898 105.102 110.783C107.491 110.947 108.605 111.111 108.35 111.832C108.128 112.554 108.128 112.554 108.128 112.554C108.128 112.554 108.828 113.209 108.669 113.767C108.51 114.324 108.032 114.586 108.032 114.586C108.032 114.586 108.892 115.472 108.51 115.963C108.128 116.455 107.714 116.521 107.714 116.521C107.714 116.521 108.351 117.242 107.777 117.668C107.236 118.062 98.2241 117.504 98.2241 117.504L98.4152 112.062Z" fill="#5644F6"/>
  <path d="M20.3174 98.7592C24.7001 96.9254 26.8091 91.7809 25.0279 87.2687C23.2467 82.7565 18.2499 80.5852 13.8672 82.419C9.48451 84.2529 7.37557 89.3974 9.15675 93.9096C10.9379 98.4218 15.9347 100.593 20.3174 98.7592Z" fill="white"/>
  <path d="M18.358 90.4565C19.0904 89.9975 19.5999 89.1779 19.5999 88.2271C19.5999 86.8174 18.4853 85.6699 17.1161 85.6699C15.7468 85.6699 14.6322 86.8174 14.6322 88.2271C14.6322 89.1779 15.1417 89.9975 15.8741 90.4565C12.4987 91.145 12.3076 94.4891 12.3076 94.4891H21.9245C21.9245 94.5219 21.7334 91.145 18.358 90.4565Z" fill="#5644F6"/>
</svg>
