<svg width="16" height="16" viewBox="0 0 16 16" fill="none" xmlns="http://www.w3.org/2000/svg">
    <g clip-path="url(#clip0)">
        <path d="M13.3334 6.66667V5.33333C13.3334 3.91884 12.7715 2.56229 11.7713 1.5621C10.7711 0.561903 9.41457 0 8.00008 0C6.58559 0 5.22904 0.561903 4.22884 1.5621C3.22865 2.56229 2.66675 3.91884 2.66675 5.33333V6.66667C2.65038 7.07331 2.55034 7.47221 2.37289 7.83847C2.19545 8.20472 1.94439 8.53045 1.63541 8.79533C1.08021 9.26842 0.732471 9.94021 0.666748 10.6667C0.666748 12.3333 3.40808 13.3333 8.00008 13.3333C12.5921 13.3333 15.3334 12.3333 15.3334 10.6667C15.2677 9.94021 14.9199 9.26842 14.3647 8.79533C14.0558 8.53045 13.8047 8.20472 13.6273 7.83847C13.4498 7.47221 13.3498 7.07331 13.3334 6.66667Z" fill="#828282"/>
        <path d="M6.09668 14.6C6.22374 15.0053 6.47688 15.3595 6.81922 15.611C7.16157 15.8624 7.57524 15.998 8.00001 15.998C8.42478 15.998 8.83846 15.8624 9.1808 15.611C9.52315 15.3595 9.77628 15.0053 9.90335 14.6C9.30735 14.644 8.67401 14.6667 8.00001 14.6667C7.32601 14.6667 6.69268 14.6453 6.09668 14.6Z" fill="#828282"/>
        <path d="M14.8334 4.66668C14.8334 6.23148 13.5649 7.50001 12.0001 7.50001C10.4353 7.50001 9.16675 6.23148 9.16675 4.66668C9.16675 3.10187 10.4353 1.83334 12.0001 1.83334C13.5649 1.83334 14.8334 3.10187 14.8334 4.66668Z" fill="#DC5B59" stroke="white"/>
    </g>
    <defs>
        <clipPath id="clip0">
            <rect width="16" height="16" fill="white"/>
        </clipPath>
    </defs>
</svg>
