<svg width="161" height="108" viewBox="0 0 161 108" fill="none" xmlns="http://www.w3.org/2000/svg">
  <path d="M132.535 76.9859C125.756 76.9859 120.273 82.4689 120.273 89.2478V105.323H144.797V89.2478C144.797 82.4938 139.314 76.9859 132.535 76.9859Z" fill="#4C9E66"/>
  <path d="M147.441 103.803C152.176 103.803 156.014 99.9641 156.014 95.2292C156.014 90.4943 152.176 86.6558 147.441 86.6558C142.706 86.6558 138.868 90.4943 138.868 95.2292C138.868 99.9641 142.706 103.803 147.441 103.803Z" fill="#6BD5A4"/>
  <path d="M11.9527 103.341C14.8539 102.109 16.2069 98.7584 14.9747 95.8573C13.7426 92.9562 10.3919 91.6032 7.49077 92.8353C4.58963 94.0674 3.23663 97.4181 4.46877 100.319C5.7009 103.22 9.05158 104.573 11.9527 103.341Z" fill="#6FCF97"/>
  <path d="M33.8043 94.673C35.2745 88.3445 31.3361 82.0224 25.0075 80.5521C18.679 79.0819 12.3569 83.0203 10.8867 89.3489C9.41646 95.6774 13.3549 101.999 19.6834 103.47C26.0119 104.94 32.334 101.002 33.8043 94.673Z" fill="#4C9E66"/>
  <path d="M161 100.638H0V107.192H161V100.638Z" fill="#434343"/>
  <path d="M134.036 33.4461H26.9937V100.637H134.036V33.4461Z" fill="#DC5B59"/>
  <path d="M134.332 96.575H124.114V100.637H135.503V97.7464C135.503 97.0984 134.98 96.575 134.332 96.575Z" fill="#F5F5F5"/>
  <path d="M124.119 52.0383H94.0376V100.637H124.119V52.0383Z" fill="#3E2723"/>
  <path d="M122.32 53.8328H95.8276V98.843H122.32V53.8328Z" fill="#6BD5A4"/>
  <path d="M122.318 64.9732V67.7396L108.412 53.8328H111.178L122.318 64.9732Z" fill="#B2DFDB"/>
  <path d="M122.318 92.1139V94.8803L95.8257 68.3626V65.6211L122.318 92.1139Z" fill="#B2DFDB"/>
  <path d="M122.323 69.21V74.7179L101.438 53.8328H106.971L122.323 69.21Z" fill="#B2DFDB"/>
  <path opacity="0.2" d="M122.32 53.8328H95.8276V54.7799H122.32V53.8328Z" fill="#212121"/>
  <path opacity="0.4" d="M94.0303 89.821V100.637H104.872L94.0303 89.821Z" fill="#212121"/>
  <path d="M100.186 73.1976C100.186 73.8207 99.6631 74.3441 99.04 74.3441C98.4169 74.3441 97.8936 73.8207 97.8936 73.1976C97.8936 72.5746 98.4169 72.0512 99.04 72.0512C99.6631 72.0512 100.186 72.5497 100.186 73.1976Z" fill="#E0E0E0"/>
  <path d="M100.186 81.3723C100.186 81.9954 99.6626 82.5187 99.0395 82.5187C98.4164 82.5187 97.8931 81.9954 97.8931 81.3723C97.8931 80.7492 98.4164 80.2259 99.0395 80.2259C99.6626 80.2259 100.186 80.7492 100.186 81.3723Z" fill="#E0E0E0"/>
  <path d="M99.044 72.3005C98.6951 72.3005 98.396 72.5995 98.396 72.9484V81.6215C98.396 81.9704 98.6951 82.2695 99.044 82.2695C99.3929 82.2695 99.692 81.9704 99.692 81.6215V72.9484C99.692 72.5995 99.3929 72.3005 99.044 72.3005Z" fill="#F5F5F5"/>
  <path d="M94.0308 96.575H26.665C26.017 96.575 25.4937 97.0984 25.4937 97.7464V100.637H94.0308V96.575Z" fill="#F5F5F5"/>
  <path d="M134.16 29.2092H26.8433V31.1781H134.16V29.2092Z" fill="#BDBDBD"/>
  <path d="M134.16 25.2715H26.8433V27.2404H134.16V25.2715Z" fill="#BDBDBD"/>
  <path d="M132.837 27.2404H28.1621V29.2092H132.837V27.2404Z" fill="#DC5B59"/>
  <path opacity="0.4" d="M132.837 27.2404H28.1621V28.2373H132.837V27.2404Z" fill="#DC5B59"/>
  <path d="M120.697 48.0508H114.69V50.3935H120.697V48.0508Z" fill="#C94E4C"/>
  <path d="M128.274 48.0508H122.268V50.3935H128.274V48.0508Z" fill="#C94E4C"/>
  <path d="M124.512 44.1628H118.506V46.5056H124.512V44.1628Z" fill="#C94E4C"/>
  <path d="M131.289 80.8239H125.282V83.1667H131.289V80.8239Z" fill="#C94E4C"/>
  <path d="M135.102 76.936H129.095V79.2788H135.102V76.936Z" fill="#C94E4C"/>
  <path d="M42.8872 48.0508H36.8809V50.3935H42.8872V48.0508Z" fill="#C94E4C"/>
  <path d="M50.4629 48.0508H44.4565V50.3935H50.4629V48.0508Z" fill="#C94E4C"/>
  <path d="M46.7002 44.1628H40.6938V46.5056H46.7002V44.1628Z" fill="#C94E4C"/>
  <path d="M54.2764 44.1628H48.27V46.5056H54.2764V44.1628Z" fill="#C94E4C"/>
  <path d="M55.0991 94.7377H61.1055V92.3949H55.0991V94.7377Z" fill="#C94E4C"/>
  <path d="M77.4805 90.8508H83.4868V88.5081H77.4805V90.8508Z" fill="#C94E4C"/>
  <path d="M47.5127 94.7377H53.519V92.3949H47.5127V94.7377Z" fill="#C94E4C"/>
  <path d="M51.2832 90.8508H57.2896V88.5081H51.2832V90.8508Z" fill="#C94E4C"/>
  <path d="M43.6973 90.8508H49.7036V88.5081H43.6973V90.8508Z" fill="#C94E4C"/>
  <path d="M30.3033 68.263H25.9668V70.6057H30.3033V68.263Z" fill="#C94E4C"/>
  <path d="M33.067 64.375H28.7305V66.7177H33.067V64.375Z" fill="#C94E4C"/>
  <path d="M124.109 58.917C123.86 58.917 123.66 59.1164 123.66 59.3656V62.78C123.66 63.0292 123.86 63.2286 124.109 63.2286C124.358 63.2286 124.557 63.0292 124.557 62.78V59.3656C124.557 59.1164 124.358 58.917 124.109 58.917Z" fill="#C94E4C"/>
  <path d="M124.109 89.4721C123.86 89.4721 123.66 89.6714 123.66 89.9207V93.3351C123.66 93.5843 123.86 93.7837 124.109 93.7837C124.358 93.7837 124.557 93.5843 124.557 93.3351V89.9207C124.557 89.6714 124.358 89.4721 124.109 89.4721Z" fill="#C94E4C"/>
  <path d="M79.1279 48.0507H76.1372V50.3934H79.1279V48.0507Z" fill="#C94E4C"/>
  <path d="M82.5659 44.1628H79.5752V46.5055H82.5659V44.1628Z" fill="#C94E4C"/>
  <path d="M77.5308 44.1628H71.5244V46.5055H77.5308V44.1628Z" fill="#C94E4C"/>
  <path d="M34.1157 88.3506H31.125V90.6933H34.1157V88.3506Z" fill="#C94E4C"/>
  <path d="M32.0215 84.4627H26.0151V86.8054H32.0215V84.4627Z" fill="#C94E4C"/>
  <path d="M130.571 65.4467H126.235V67.7895H130.571V65.4467Z" fill="#C94E4C"/>
  <path d="M89.3941 58.1444H86.3535V60.4871H89.3941V58.1444Z" fill="#C94E4C"/>
  <path d="M90.9165 61.5089H87.876V63.8517H90.9165V61.5089Z" fill="#C94E4C"/>
  <path d="M36.6831 39.627C36.6831 43.0912 39.4744 45.8825 42.9387 45.8825C46.4029 45.8825 49.1943 43.0912 49.1943 39.627V35.7141H36.6831V39.627Z" fill="#E0E0E0"/>
  <path d="M61.7065 39.627C61.7065 43.0912 64.4979 45.8825 67.9621 45.8825C71.4264 45.8825 74.2177 43.0912 74.2177 39.627V35.7141H61.7065V39.627Z" fill="#E0E0E0"/>
  <path d="M86.7529 39.627C86.7529 43.0912 89.5443 45.8825 93.0085 45.8825C96.4728 45.8825 99.2641 43.0912 99.2641 39.627V35.7141H86.7529V39.627Z" fill="#E0E0E0"/>
  <path d="M111.801 35.739V39.627C111.801 43.0912 114.592 45.8825 118.056 45.8825C121.521 45.8825 124.312 43.0912 124.312 39.627V35.7141H111.801V35.739Z" fill="#E0E0E0"/>
  <path d="M36.6831 35.739H49.1943L50.6896 31.1782H38.7766L36.6831 35.739Z" fill="#EEEEEE"/>
  <path d="M61.7065 35.739H74.2426L74.5417 31.1782H62.6038L61.7065 35.739Z" fill="#EEEEEE"/>
  <path d="M86.4536 31.1782L86.7527 35.739H99.2888L98.3915 31.1782H86.4536Z" fill="#EEEEEE"/>
  <path d="M122.22 31.1782H110.307L111.802 35.739H124.314L122.22 31.1782Z" fill="#EEEEEE"/>
  <path d="M24.1499 39.6269C24.1499 43.0912 26.9412 45.8825 30.4055 45.8825C33.8697 45.8825 36.6611 43.0912 36.6611 39.6269V35.7141H24.1499V39.6269Z" fill="#5644F6"/>
  <path d="M49.1992 39.6269C49.1992 43.0912 51.9906 45.8825 55.4548 45.8825C58.919 45.8825 61.7104 43.0912 61.7104 39.6269V35.7141H49.1992V39.6269Z" fill="#5644F6"/>
  <path d="M74.2471 39.6269C74.2471 43.0912 77.0384 45.8825 80.5026 45.8825C83.9669 45.8825 86.7582 43.0912 86.7582 39.6269V35.7141H74.2471V39.6269Z" fill="#5644F6"/>
  <path d="M99.2935 39.6269C99.2935 43.0912 102.085 45.8825 105.549 45.8825C109.013 45.8825 111.805 43.0912 111.805 39.6269V35.7141H99.2935V39.6269Z" fill="#5644F6"/>
  <path d="M124.317 35.739V39.6269C124.317 43.0912 127.108 45.8825 130.572 45.8825C134.037 45.8825 136.828 43.0912 136.828 39.6269V35.7141H124.317V35.739Z" fill="#5644F6"/>
  <path d="M24.1499 35.739H36.686L38.7795 31.1782H26.8415L24.1499 35.739Z" fill="#5644F6"/>
  <path d="M49.1992 35.739H61.7104L62.6076 31.1781H50.6946L49.1992 35.739Z" fill="#5644F6"/>
  <path d="M74.5461 31.1781L74.2471 35.739H86.7582L86.4591 31.1781H74.5461Z" fill="#5644F6"/>
  <path d="M98.3936 31.1781L99.2908 35.739H111.802L110.307 31.1781H98.3936Z" fill="#5644F6"/>
  <path d="M134.158 31.1781H122.22L124.314 35.739H136.85L134.158 31.1781Z" fill="#5644F6"/>
  <path d="M31.3278 52.0383H28.1377V54.3811H31.3278V52.0383Z" fill="#DC5B59"/>
  <path d="M86.3592 52.5368H35.4175V83.4409H86.3592V52.5368Z" fill="#3E2723"/>
  <path d="M84.5922 54.3313H37.2144V81.6714H84.5922V54.3313Z" fill="#6BD5A4"/>
  <path d="M84.5627 62.4062V66.6181L72.2759 54.3313H76.5127L84.5627 62.4062Z" fill="#B2DFDB"/>
  <path d="M84.563 67.7895V69.9079L68.9863 54.3313H71.1048L84.563 67.7895Z" fill="#B2DFDB"/>
  <path d="M84.5676 77.4345V81.6714H80.3557L53.0156 54.3313H61.4644L84.5676 77.4345Z" fill="#B2DFDB"/>
  <path opacity="0.2" d="M84.5922 54.3313H37.2144V55.2783H84.5922V54.3313Z" fill="#212121"/>
  <path d="M89.0003 83.4408H32.75V89.2478H89.0003V83.4408Z" fill="#FAFBFB"/>
  <path d="M85.5092 80.0514H36.2373C34.9413 80.0514 33.8696 81.0981 33.8696 82.419V83.4658H87.8769V82.419C87.8769 81.0981 86.8301 80.0514 85.5092 80.0514Z" fill="#4C9E66"/>
  <path d="M89.0003 83.4408H32.75V84.687H89.0003V83.4408Z" fill="#EEEEEE"/>
  <path d="M87.8749 82.2944H33.8926C33.8926 82.3443 33.8926 82.3692 33.8926 82.419V83.4658H87.8998V82.419C87.8749 82.3692 87.8749 82.3194 87.8749 82.2944Z" fill="#1B5E20"/>
  <path opacity="0.4" d="M94.0346 88.4752V100.637H44.1396L32.75 89.2727H89.0003V83.4408L94.0346 88.4752Z" fill="#212121"/>
  <path d="M135.776 0H25.2198C23.5002 0 22.0796 1.39567 22.0796 3.14025V20.2122C22.0796 21.9319 23.4753 23.3525 25.2198 23.3525H135.801C137.521 23.3525 138.942 21.9568 138.942 20.2122V3.14025C138.917 1.39567 137.521 0 135.776 0Z" fill="#3E2723"/>
  <path d="M135.084 1.84433H25.9225C24.801 1.84433 23.9038 2.74154 23.9038 3.86306V19.4895C23.9038 20.611 24.801 21.5083 25.9225 21.5083H135.084C136.205 21.5083 137.102 20.611 137.102 19.4895V3.86306C137.102 2.74154 136.205 1.84433 135.084 1.84433Z" fill="#5644F6"/>
  <path opacity="0.2" d="M137.102 3.86306V4.08736H23.9038V3.86306C23.9038 2.74154 24.801 1.84433 25.9225 1.84433H135.084C136.205 1.84433 137.102 2.76647 137.102 3.86306Z" fill="#212121"/>
  <path d="M48.5995 18.368C47.802 18.368 47.1041 18.2185 46.4811 17.9443C45.8829 17.6702 45.4094 17.2714 45.0605 16.748C44.7116 16.2246 44.5371 15.6016 44.5371 14.8788H46.2817C46.2817 15.452 46.506 15.9505 46.8798 16.3742C47.2786 16.7729 47.8269 16.9723 48.5497 16.9723C49.1727 16.9723 49.6712 16.8228 50.045 16.5237C50.3939 16.2247 50.5933 15.8259 50.5933 15.3524C50.5933 14.9785 50.5185 14.6545 50.3441 14.4053C50.1696 14.1561 49.9453 13.9567 49.6462 13.8072C49.3472 13.6576 48.9983 13.5081 48.6244 13.3835C48.2506 13.2589 47.8269 13.1342 47.4032 12.9847C46.5558 12.7106 45.9328 12.3367 45.5091 11.8881C45.0854 11.4395 44.886 10.8414 44.886 10.1186C44.886 9.49555 45.0106 8.97217 45.3097 8.49864C45.6088 8.05004 46.0325 7.6762 46.5558 7.42697C47.1041 7.17774 47.7272 7.05313 48.45 7.05313C49.1478 7.05313 49.7709 7.17774 50.3192 7.45189C50.8675 7.70112 51.2662 8.07496 51.5653 8.54849C51.8644 9.02202 52.0139 9.54539 52.0388 10.1685H50.2942C50.2942 9.89431 50.2195 9.62016 50.0699 9.37093C49.9204 9.12171 49.721 8.8974 49.4219 8.74787C49.1478 8.57341 48.7989 8.49864 48.4001 8.49864C47.8767 8.49864 47.4531 8.62326 47.1041 8.8974C46.7552 9.17155 46.6057 9.54539 46.6057 10.0189C46.6057 10.4426 46.7303 10.7666 46.9795 10.9909C47.2288 11.2152 47.5777 11.4146 48.0014 11.5641C48.45 11.7137 48.9484 11.8881 49.4967 12.0875C50.045 12.262 50.5185 12.4863 50.9422 12.7355C51.3659 12.9847 51.7148 13.3087 51.964 13.7075C52.2133 14.1062 52.3379 14.6296 52.3379 15.2527C52.3379 15.801 52.1884 16.3243 51.9142 16.7979C51.6401 17.2714 51.2164 17.6452 50.6432 17.9443C50.1198 18.2434 49.4219 18.368 48.5995 18.368Z" fill="#FAFBFB"/>
  <path d="M62.8034 18.1936V8.59835H59.5635V7.25253H67.6633V8.59835H64.4483V18.1936H62.8034Z" fill="#FAFBFB"/>
  <path d="M80.0264 18.368C78.9547 18.368 78.0077 18.1188 77.1852 17.6452C76.3628 17.1717 75.7397 16.4988 75.2911 15.6514C74.8425 14.8041 74.5933 13.8321 74.5933 12.7106C74.5933 11.589 74.8176 10.6171 75.2911 9.7697C75.7397 8.92233 76.3877 8.24942 77.1852 7.77589C78.0077 7.30236 78.9547 7.05313 80.0264 7.05313C81.0981 7.05313 82.0451 7.30236 82.8676 7.77589C83.69 8.24942 84.3131 8.92233 84.7617 9.7697C85.2103 10.6171 85.4346 11.589 85.4346 12.7106C85.4346 13.8321 85.2103 14.8041 84.7617 15.6514C84.3131 16.4988 83.6651 17.1717 82.8676 17.6452C82.0701 18.1437 81.123 18.368 80.0264 18.368ZM80.0264 16.8976C80.7741 16.8976 81.4221 16.7231 81.9953 16.3991C82.5436 16.0751 82.9922 15.5767 83.2913 14.9536C83.6153 14.3305 83.7648 13.5829 83.7648 12.7106C83.7648 11.8383 83.6153 11.0906 83.2913 10.4675C82.9673 9.84446 82.5436 9.37093 81.9953 9.02202C81.447 8.69802 80.7741 8.52357 80.0264 8.52357C79.2787 8.52357 78.6307 8.69802 78.0575 9.02202C77.4843 9.34601 77.0606 9.84446 76.7615 10.4675C76.4625 11.0906 76.3129 11.8383 76.3129 12.7106C76.3129 13.5829 76.4625 14.3305 76.7615 14.9536C77.0606 15.5767 77.5092 16.0502 78.0575 16.3991C78.6307 16.7231 79.2787 16.8976 80.0264 16.8976Z" fill="#FAFBFB"/>
  <path d="M93.5356 18.1936V7.25253H97.299C98.1712 7.25253 98.8691 7.40207 99.4423 7.70114C99.9906 8.00021 100.414 8.37405 100.688 8.8725C100.963 9.37095 101.087 9.91925 101.087 10.5174C101.087 11.1903 100.913 11.8134 100.539 12.3617C100.19 12.91 99.6168 13.3087 98.8691 13.558L101.187 18.1936H99.2678L97.1494 13.7823H95.2055V18.1936H93.5356ZM95.2055 12.5361H97.2242C97.9719 12.5361 98.5202 12.3617 98.8691 11.9878C99.218 11.614 99.3925 11.1405 99.3925 10.5672C99.3925 9.99402 99.218 9.52049 98.8691 9.17157C98.5202 8.82266 97.9719 8.6482 97.1993 8.6482H95.2055V12.5361Z" fill="#FAFBFB"/>
  <path d="M109.283 18.1936V7.25253H116.237V8.59835H110.928V12.0128H115.763V13.3336H110.928V16.8727H116.237V18.1936H109.283Z" fill="#FAFBFB"/>
  <path d="M36.4888 23.3525H34.6196V25.2715H36.4888V23.3525Z" fill="#212121"/>
  <path d="M126.382 23.3525H124.513V25.2715H126.382V23.3525Z" fill="#212121"/>
</svg>
